{"title":"Jayne.Mansfields.Car.2012.DVDSCR.XViD.AC3-26k","uid":7731962,"size":2109521191,"categoryP":"video","categoryS":"movies","magnet":"?xt=urn:btih:837c274fa4945e15fa48060e038ebe024b326ce8&amp;dn=Jayne.Mansfields.Car.2012.DVDSCR.XViD.AC3-26k&amp;tr=udp%3A%2F%2Ftracker.openbittorrent.com%3A80&amp;tr=udp%3A%2F%2Fopen.demonii.com%3A1337&amp;tr=udp%3A%2F%2Ftracker.coppersurfer.tk%3A6969&amp;tr=udp%3A%2F%2Fexodus.desync.com%3A6969","seeders":0,"leechers":0,"uploader":"Acesn8s","files":-1,"time":1350362237,"description":"Jayne.Mansfields.Car.2012.DVDSCR.XViD.AC3-26k\n &lt;a href=&quot;\nhttp://www.imdb.com/title/tt1781840/&quot; rel=&quot;nofollow&quot; target=&quot;_NEW&quot;&gt;\nhttp://www.imdb.com/title/tt1781840/&lt;/a&gt;\n\nPlot:\n\nThe drama is about two families from different countries whose cultures clash\nThe drama takes place in the 1960s\n\nSources - VIDEO: Cyno.....Thanks\nAUDIO: Cyno.....Thanks\nFormat: AVI\nFormat/Info: Audio Video Interleave\nFile size: 1.96 GiB\nDuration: 1h 56mn\nOverall bit rate: 2 412 Kbps\nWriting library: VirtualDub build 32839/release\n\nVideo\nID: 0\nFormat: MPEG-4 Visual\nFormat profile: Advanced Simple@L5\nFormat settings, BVOP: 2\nFormat settings, QPel: No\nFormat settings, GMC: No warppoints\nFormat settings, Matrix: Default (H.263)\nMuxing mode: Packed bitstream\nCodec ID: XVID\nCodec ID/Hint: XviD\nDuration: 1h 56mn\nBit rate: 2 210 Kbps\nWidth: 720 pixels\nHeight: 320 pixels\nDisplay aspect ratio: 2.25:1\nFrame rate: 25.000 fps\nColor space: YUV\nChroma subsampling: 4:2:0\nBit depth: 8 bits\nScan type: Progressive\nCompression mode: Lossy\nBits/(Pixel*Frame): 0.384\nStream size: 1.80 GiB (92%)\nWriting library: XviD 64\n\nAudio\nID: 1\nFormat: AC-3\nFormat/Info: Audio Coding 3\nMode extension: CM (complete main)\nCodec ID: 2000\nDuration: 1h 56mn\nBit rate mode: Constant\nBit rate: 192 Kbps\nChannel(s): 2 channels\nChannel positions: Front: L R\nSampling rate: 48.0 KHz\nBit depth: 16 bits\nCompression mode: Lossy\nStream size: 160 MiB (8%)\nAlignment: Split accross interleaves\nInterleave, duration: 40 ms (1.00 video frame)\nInterleave, preload duration: 500 ms\n\nNotes\n\nEnjoy this DVDSCR.. there is no imdb rls date in theaters for it\n\nDid our thing.. Turned out real nice\nResize, denoise, slight RGB adjustment and slight sharpen.. enjoy\nDoes have occasional watermark that pops up at top decided not to blur as its\nonly onscreen for a few seconds each time and doesnt happen often.. \n\nScreens\n &lt;a href=&quot;\nhttp://i.imgur.com/6Mea5.png&quot; rel=&quot;nofollow&quot; target=&quot;_NEW&quot;&gt;\nhttp://i.imgur.com/6Mea5.png&lt;/a&gt; &lt;a href=&quot;\nhttp://i.imgur.com/SDLVO.png&quot; rel=&quot;nofollow&quot; target=&quot;_NEW&quot;&gt;\nhttp://i.imgur.com/SDLVO.png&lt;/a&gt; &lt;a href=&quot;\nhttp://i.imgur.com/DzeZS.png&quot; rel=&quot;nofollow&quot; target=&quot;_NEW&quot;&gt;\nhttp://i.imgur.com/DzeZS.png&lt;/a&gt;\n","torrent":{"xt":"urn:btih:837c274fa4945e15fa48060e038ebe024b326ce8","amp;dn":"Jayne.Mansfields.Car.2012.DVDSCR.XViD.AC3-26k","amp;tr":["udp%3A%2F%2Ftracker.openbittorrent.com%3A80","udp%3A%2F%2Fopen.demonii.com%3A1337","udp%3A%2F%2Ftracker.coppersurfer.tk%3A6969","udp%3A%2F%2Fexodus.desync.com%3A6969"],"infoHash":"837c274fa4945e15fa48060e038ebe024b326ce8","infoHashBuffer":{"type":"Buffer","data":[131,124,39,79,164,148,94,21,250,72,6,14,3,142,190,2,75,50,108,232]},"announce":[],"urlList":[]}}